<?xml version="1.0" encoding="utf-8"?>
<!-- Generator: Adobe Illustrator 27.7.0, SVG Export Plug-In . SVG Version: 6.00 Build 0)  -->
<svg version="1.1" id="Capa_1" xmlns="http://www.w3.org/2000/svg" xmlns:xlink="http://www.w3.org/1999/xlink" x="0px" y="0px"
	 viewBox="0 0 974 106" style="enable-background:new 0 0 974 106;" xml:space="preserve">
<style type="text/css">
	.st0{fill:#FFFFFF;}
	.st1{fill:#008BE5;}
</style>
<g>
	<path class="st0" d="M0.18-0.34h81.56c20.63,0,25.91,0.64,32.63,4c10.72,5.28,14.72,15.03,14.72,35.19
		c0,20.31-3.68,30.87-12.48,36.3c-6.24,3.84-13.43,4.96-31.99,4.96H32.49v26.23H0.18V-0.34z M79.67,54.2
		c13.28,0,17.11-2.88,17.11-12.95c0-12.8-3.2-15.67-17.11-15.67H32.49V54.2H79.67z"/>
	<path class="st0" d="M418.03-0.34h91.96c18.87,0,27.19,1.6,33.27,6.72c6.24,4.96,9.12,14.08,9.12,28.47
		c0,19.83-4.8,27.67-18.39,30.71c13.27,2.24,17.27,7.84,16.95,23.99v16.79h-32.95V93.06c-0.16-11.51-3.36-13.91-17.92-13.59h-49.74
		v26.87h-32.3V-0.34z M501.03,53.4c15.67,0,18.72-1.92,18.72-12.47c0-6.88-0.65-9.76-2.72-12c-2.4-2.56-5.12-3.04-14.88-3.04h-51.82
		V53.4H501.03z"/>
	<path class="st0" d="M619.65,26.05h-47.5V-0.34h127.47v26.39h-47.51v80.29h-32.46V26.05z"/>
	<path class="st0" d="M751.24-0.34h43.51l58.37,106.68h-35.51l-10.55-19.03h-68.78l-10.24,19.03h-36.79L751.24-0.34z M795.7,65.07
		l-23.03-42.54l-22.71,42.54H795.7z"/>
	<path class="st0" d="M867.94-0.34h32.46v80.29h73.41v26.39H867.94V-0.34z"/>
	<path class="st1" d="M372.93,106.34h-45.72c0-33.66-27.3-60.96-60.96-60.96s-60.96,27.3-60.96,60.96h-45.72
		c0-58.91,47.77-106.68,106.68-106.68C325.18-0.34,372.93,47.43,372.93,106.34z"/>
</g>
</svg>
